<?xml version="1.0" ?><svg data-name="Layer 1" id="Layer_1" viewBox="0 0 100 100" xmlns="http://www.w3.org/2000/svg"><defs><style>.cls-1{fill:#4d4d4d;}</style></defs><title/><path class="cls-1" d="M50,4.25A41.54716,41.54716,0,0,0,8.5,45.75v8.5a41.5,41.5,0,0,0,83,0v-8.5A41.54716,41.54716,0,0,0,50,4.25Zm0,6A35.37521,35.37521,0,1,1,14.50317,45.625,35.53831,35.53831,0,0,1,50,10.25Zm0,79.5A35.55545,35.55545,0,0,1,15.48608,62.53479a38.48007,38.48007,0,0,0,69.02783,0A35.55545,35.55545,0,0,1,50,89.75Z"/><path class="cls-1" d="M42.30707,62.84314L67.90479,48.0686a2.21523,2.21523,0,0,0,0-3.82245L42.30707,29.47162A2.20192,2.20192,0,0,0,39,31.36139v29.592A2.20188,2.20188,0,0,0,42.30707,62.84314Z"/></svg>